<?xml version="1.0" encoding="utf-8"?>
<!-- Generator: Adobe Illustrator 24.1.1, SVG Export Plug-In . SVG Version: 6.00 Build 0)  -->
<svg version="1.1" id="Layer_1" xmlns="http://www.w3.org/2000/svg" xmlns:xlink="http://www.w3.org/1999/xlink" x="0px" y="0px"
	 viewBox="0 0 1920 1080" style="enable-background:new 0 0 1920 1080;" xml:space="preserve">
<style>
.car_body{
	fill: red;
}
</style>
	<g>
		<path class="car_body" d="M974.01,425.27h-5.28c-3.31,0-5.98,2.68-5.98,5.98v11.02l-18.88,0.48c-0.43,0.01-0.86-0.15-1.17-0.45
			c-0.31-0.3-0.48-0.72-0.48-1.15V426.8c0-12.53-10.19-22.73-22.72-22.73c0,0-31.24-0.12-43.25-0.01c0-3.86-3.13-6.99-6.99-6.99
			h-29.87c-6.97,0-13.38,3.83-16.68,9.96l-16.19,30.07c0,0-74.32,7.6-78.11,11.34c-3.8,3.74-4.68,11.03-4.68,11.03
			s-3.57,0.97-5.98,4.36c-0.99,1.41-1.13,3.25-0.34,4.79c0.79,1.53,2.37,2.5,4.1,2.5v3.95l-14.82,3.45
			c-1.83,0.42-4.2,3.37-1.95,7.54c3.34,6.2,17.22,6.25,17.22,6.25l6.8-21.31c1.23-3.87,4.74-6.57,8.79-6.79l24.76-1.56
			c3.66-0.19,7.11,1.67,8.96,4.83l20.14,34.51h82.12l24.85-35.69c1.79-2.58,4.7-4.14,7.83-4.21l25.42-0.54
			c4.1-0.09,7.81,2.39,9.31,6.2l7.91,20.12h18.54c3.31,0,5.98-2.68,5.98-5.98v-3.13h0.67c3.31,0,5.98-2.68,5.98-5.98v-41.51
			C980,427.95,977.32,425.27,974.01,425.27z M828.3,438.12v-8.03c0-1.2-0.96-2.16-2.15-2.18l-4.88-0.06l8.46-16.74
			c2.19-4.33,6.62-7.05,11.47-7.05h24.25c0.96,0,1.74,0.78,1.74,1.74v32.52L828.3,438.12z M933.57,441.46c0,0.87-0.69,1.58-1.57,1.6
			l-53.86,1.38c-0.43,0.01-0.86-0.15-1.16-0.45c-0.31-0.3-0.48-0.72-0.48-1.15l-0.01-28.53c0-0.42,0.17-0.84,0.47-1.14
			c0.3-0.3,0.71-0.47,1.14-0.47h41.39c7.76,0,14.08,6.32,14.08,14.08V441.46z"/>
		<path d="M752.49,473.2c-14.82,0.14-26.72,12.27-26.58,27.09c0.01,1.15,0.12,2.26,0.27,3.37c1.79,13.22,13.15,23.34,26.83,23.21
			c14.06-0.13,25.46-11.03,26.49-24.8c0.06-0.76,0.1-1.52,0.09-2.3C779.46,484.97,767.32,473.07,752.49,473.2z M750.27,483.42
			l0.07,7.72c-0.84,0.23-1.63,0.57-2.37,1.02l-5.52-5.42C744.69,485.01,747.35,483.85,750.27,483.42z M739.21,490.06l5.53,5.42
			c-0.42,0.74-0.75,1.53-0.96,2.37l-7.71,0.08C736.45,494.99,737.54,492.32,739.21,490.06z M736.08,502.57l7.77-0.07
			c0.22,0.83,0.56,1.61,0.99,2.32l-5.44,5.54C737.71,508.13,736.53,505.48,736.08,502.57z M742.77,513.59l5.41-5.51
			c0.72,0.41,1.51,0.72,2.33,0.92l0.08,7.74C747.68,516.36,745.02,515.25,742.77,513.59z M769.39,497.61l-7.72,0.07
			c-0.22-0.84-0.56-1.62-0.99-2.36l5.42-5.52C767.83,492.03,768.97,494.69,769.39,497.61z M754.92,483.37
			c2.93,0.38,5.61,1.49,7.87,3.17l-5.41,5.52c-0.74-0.43-1.53-0.76-2.38-0.97L754.92,483.37z M755.23,516.69l-0.08-7.73
			c0.83-0.22,1.61-0.54,2.33-0.98l5.5,5.42C760.78,515.1,758.14,516.27,755.23,516.69z M766.29,510.11l-5.56-5.45
			c0.42-0.72,0.77-1.49,0.98-2.34l7.71-0.06C769.05,505.17,767.97,507.87,766.29,510.11z">
			<animateTransform
				attributeName ="transform"
				attributeType ="XML"
				type="rotate"
				from="360 753 500 "
				to="0 753 500"
				dur="3s"
				repeatCount="1.35"
			 />
			</path>
		<path d="M916.8,473.2c-14.82,0.14-26.72,12.27-26.58,27.09c0.01,1.15,0.12,2.26,0.27,3.37c1.79,13.22,13.15,23.34,26.83,23.21
			c14.06-0.13,25.45-11.03,26.49-24.8c0.06-0.76,0.1-1.52,0.09-2.3C943.77,484.97,931.63,473.07,916.8,473.2z M914.58,483.42
			l0.07,7.72c-0.84,0.23-1.63,0.57-2.37,1.02l-5.52-5.42C909,485.01,911.65,483.85,914.58,483.42z M903.52,490.06l5.53,5.42
			c-0.43,0.74-0.76,1.53-0.96,2.37l-7.71,0.08C900.75,494.99,901.85,492.32,903.52,490.06z M900.39,502.57l7.77-0.07
			c0.22,0.83,0.56,1.61,0.99,2.32l-5.44,5.54C902.01,508.13,900.83,505.48,900.39,502.57z M907.08,513.59l5.4-5.51
			c0.72,0.41,1.51,0.72,2.34,0.92l0.08,7.74C911.99,516.36,909.32,515.25,907.08,513.59z M933.7,497.61l-7.72,0.07
			c-0.21-0.84-0.56-1.62-0.99-2.36l5.43-5.52C932.13,492.03,933.27,494.69,933.7,497.61z M919.23,483.37
			c2.93,0.38,5.61,1.49,7.87,3.17l-5.41,5.52c-0.74-0.43-1.53-0.76-2.38-0.97L919.23,483.37z M919.54,516.69l-0.07-7.73
			c0.82-0.22,1.61-0.54,2.33-0.98l5.51,5.42C925.08,515.1,922.45,516.27,919.54,516.69z M930.6,510.11l-5.56-5.45
			c0.42-0.72,0.77-1.49,0.98-2.34l7.71-0.06C933.35,505.17,932.28,507.87,930.6,510.11z">
				<animateTransform
				attributeName ="transform"
				attributeType ="XML"
				type="rotate"
				from="360 917 500 "
				to="0 917 500"
				dur="3s"
				repeatCount="1.35"
			 />
			</path>
			<animateTransform
				attributeName ="transform"
				attributeType ="XML"
				type="translate"
				values=" 300,0;0,0; "
				dur="4s"
				repeatCount="1"
			 />
	</g>

</svg>
